<svg xmlns="http://www.w3.org/2000/svg" width="1922" height="1080" viewBox="0 0 1922 1080">
  <g id="Grupo_6" data-name="Grupo 6" transform="translate(2 1)">
    <rect id="Retângulo_12" data-name="Retângulo 12" width="1920" height="1080" transform="translate(-2 -1)" fill="#fdfdf3"/>
    <path id="Polígono_1" data-name="Polígono 1" d="M29,0,58,41H0Z" transform="translate(41 133.5) rotate(90)" fill="#ffd466"/>
    <path id="Polígono_2" data-name="Polígono 2" d="M27.5,0,55,41H0Z" transform="translate(1879 460) rotate(-90)" fill="#ffd466"/>
    <path id="Polígono_4" data-name="Polígono 4" d="M19,0,38,26H0Z" transform="translate(26 518.5) rotate(90)" fill="#53bfed"/>
    <path id="Polígono_5" data-name="Polígono 5" d="M27.5,0,55,38H0Z" transform="translate(38 558.5) rotate(90)" fill="#f74a2a"/>
    <path id="Polígono_6" data-name="Polígono 6" d="M19,0,38,26H0Z" transform="translate(26 882.5) rotate(90)" fill="#f74a2a"/>
    <path id="Polígono_7" data-name="Polígono 7" d="M19,0,38,26H0Z" transform="translate(1894 917.5) rotate(-90)" fill="#5d9e64"/>
    <path id="Polígono_9" data-name="Polígono 9" d="M18.5,0,37,26H0Z" transform="translate(1894 174.4) rotate(-90)" fill="#51c0ed"/>
    <path id="Polígono_22" data-name="Polígono 22" d="M7.5,0,15,13H0Z" transform="translate(1874.302 81.446) rotate(-48)" fill="#f04d24"/>
    <path id="Polígono_23" data-name="Polígono 23" d="M8,0l8,14H0Z" transform="translate(1863.371 341.836) rotate(-101)" fill="#696ba4"/>
    <path id="Polígono_24" data-name="Polígono 24" d="M8,0l8,14H0Z" transform="translate(1830.053 962.836) rotate(-101)" fill="#696ba4"/>
    <rect id="Retângulo_26" data-name="Retângulo 26" width="13" height="13" transform="matrix(0.777, 0.629, -0.629, 0.777, 1849.9, 776.819)" fill="#78d1f3"/>
    <rect id="Retângulo_27" data-name="Retângulo 27" width="39" height="7" transform="translate(1833.083 639.799) rotate(3)" fill="#f54c25"/>
    <path id="Polígono_26" data-name="Polígono 26" d="M8,0l8,14H0Z" transform="translate(73.958 293.228) rotate(104)" fill="#ef4c29"/>
    <circle id="Elipse_8" data-name="Elipse 8" cx="7.5" cy="7.5" r="7.5" transform="translate(57 45)" fill="#fcbad6"/>
    <circle id="Elipse_9" data-name="Elipse 9" cx="7.5" cy="7.5" r="7.5" transform="translate(38 758)" fill="#fcbad6"/>
  </g>
</svg>
